<?xml version="1.0" standalone="no"?>
<!DOCTYPE svg PUBLIC "-//W3C//DTD SVG 20010904//EN"
 "http://www.w3.org/TR/2001/REC-SVG-20010904/DTD/svg10.dtd">
<svg version="1.0" xmlns="http://www.w3.org/2000/svg"
 width="180.000000pt" height="90.000000pt" viewBox="0 0 434.000000 192.000000"
 preserveAspectRatio="xMidYMid meet">
<metadata>
Created by potrace 1.16, written by Peter Selinger 2001-2019
</metadata>
<g transform="translate(0.000000,192.000000) scale(0.100000,-0.100000)"
fill="#000000" stroke="none">
<path d="M3096 1600 c-99 -31 -136 -171 -68 -252 69 -81 201 -76 259 11 27 41
31 126 8 171 -31 60 -125 94 -199 70z"/>
<path d="M2070 985 l0 -605 124 0 c87 0 126 4 128 12 3 9 20 7 64 -5 76 -21
196 -22 256 -1 153 51 236 254 208 503 -14 129 -41 195 -104 257 -37 35 -66
54 -101 65 -57 16 -197 17 -237 0 l-28 -11 0 195 0 195 -155 0 -155 0 0 -605z
m428 0 c21 -19 32 -81 32 -182 0 -163 -24 -223 -91 -223 -60 0 -59 -5 -59 207
l0 194 33 14 c34 15 63 11 85 -10z"/>
<path d="M618 1084 l-3 -427 -28 -21 c-23 -17 -42 -21 -101 -20 -40 1 -84 4
-98 7 -26 7 -27 6 -53 -104 -14 -61 -25 -112 -23 -114 14 -12 214 -37 298 -37
201 0 299 70 329 236 7 37 11 221 11 483 l0 423 -165 0 -165 0 -2 -426z"/>
<path d="M3660 1435 l-145 -20 -3 -97 -3 -98 -39 0 -40 0 0 -115 0 -115 34 0
33 0 6 -207 c6 -228 17 -288 64 -344 45 -53 93 -69 216 -69 121 0 247 17 247
34 0 6 -7 34 -15 61 -9 28 -20 66 -25 85 l-10 36 -68 -4 c-104 -6 -103 -9
-100 216 l3 187 93 3 93 3 -3 112 -3 112 -92 3 -92 3 -3 117 -3 117 -145 -20z"/>
<path d="M1410 1216 c-81 -18 -123 -39 -175 -87 -90 -83 -132 -210 -122 -367
13 -203 96 -322 260 -373 98 -31 257 -24 339 13 170 78 253 288 204 519 -35
162 -131 262 -282 294 -82 17 -149 18 -224 1z m150 -206 c29 -16 40 -73 39
-215 0 -148 -11 -194 -51 -213 -39 -18 -79 2 -95 48 -15 43 -17 281 -3 332 15
53 62 74 110 48z"/>
<path d="M3007 1214 c-4 -4 -7 -193 -7 -421 l0 -413 155 0 155 0 -2 418 -3
417 -146 3 c-80 1 -148 -1 -152 -4z"/>
</g>
</svg>
